<svg width="2143" height="970" viewBox="0 0 2143 970" fill="none" xmlns="http://www.w3.org/2000/svg">
<path d="M2142.4 80.8086L2102 87.7734C1915.53 119.918 1770.59 207.668 1639.3 287.801C1574.53 327.332 1511.46 365.993 1449.88 392.557C1387.75 419.349 1323.71 435.43 1256.49 427.059C1241.9 425.242 1224.59 418.139 1214.29 400.345C1205.38 384.969 1206.34 369.098 1207.67 360.11C1208.14 356.897 1208.84 353.598 1209.68 350.28C1178.87 384.625 1134.38 433.19 1069.38 454.573C1061.33 457.221 1050.28 458.844 1038.28 455.134C1025.91 451.312 1017.4 443.343 1012.15 435.584C1003.19 422.374 1001.74 407.124 1001.31 398.856C1000.64 385.857 1002 370.641 1004.07 355.918C980.733 376.749 956.349 401.472 931.478 429.045C878.225 488.083 825.673 556.828 780.016 620.088C734.194 683.575 696.465 739.892 671.218 776.082C661.116 790.562 651.103 804.677 643.587 813.078L570.48 769.899C571.35 767.196 572.359 764.417 573.403 761.691C633.508 604.882 670.733 491.909 683.324 421.595C687.576 397.854 688.284 382.52 687.773 373.367C674.975 378.252 654.586 389.889 625.072 412.249C591.278 437.852 549.227 474.59 498.178 523.201C400.835 615.896 273.21 749.417 111.61 925.569C103.096 935.533 95.3734 944.42 88.6201 952.085C82.5669 958.955 77.2507 964.888 72.8086 969.775L0 926.771C1.14328 925.418 2.45612 923.89 3.90332 922.231C8.90606 916.5 16.671 907.83 27.5176 895.972C35.1425 887.635 42.6988 879.388 50.1836 871.229C84.869 830.596 132.99 771.642 181.592 704.886C242.506 621.218 302.787 527.178 338.916 442.501C356.993 400.134 368.172 362.044 371.197 329.988C371.807 323.522 372.075 317.442 372.024 311.729C365.409 319.213 358.334 327.29 350.896 335.768C338.553 349.834 325.322 364.873 312.122 379.438C289.836 404.03 265.662 429.517 244.763 446.927L245.181 445.756L139.029 407.963C140.27 398.718 143.019 389.742 145.318 382.909C148.845 372.431 153.557 360.767 158.529 349.156C167.186 328.942 179.739 301.991 188.304 282.668L160.818 252.501L191.126 224.889C196.544 219.952 201.83 215.509 206.901 211.862C211.424 208.61 218.198 204.196 226.347 201.576C233.732 199.202 254.006 194.962 271.205 210.872C285.631 224.217 285.753 241.481 285.687 246.208C285.517 258.237 281.271 271.008 278.327 279.24C275.327 287.629 271.489 296.975 267.378 306.503C274.756 298.195 282.092 289.852 289.26 281.684C301.507 267.726 313.392 254.14 323.819 242.576C329.929 235.8 335.908 229.303 341.442 223.591L447.569 261.374C454.154 285.87 455.275 311.834 452.835 337.691C448.714 381.36 434.194 428.143 414.338 474.681C410.457 483.777 406.336 492.938 402.007 502.144C415.706 488.704 428.912 475.929 441.63 463.818C493.689 414.245 538.255 375.147 575.554 346.889C601.914 326.917 626.836 310.627 649.697 300.446L765.247 341.585C772.932 368.414 770.123 402.079 764.04 436.049C758.93 464.585 750.438 498.446 738.85 537.438C779.248 482.845 824.377 425.353 870.588 374.122C915.797 324.002 964.071 277.55 1011.62 246.155L1102.53 278.523C1101.64 283.728 1100.33 290.071 1098.99 296.378C1095.68 311.978 1091.39 331.211 1088 350.297C1087.79 351.537 1087.57 352.761 1087.37 353.968C1109.53 338.038 1129.21 317.197 1148.94 295.195C1162.57 279.991 1178.02 262.198 1193.42 248.93L1316.27 292.666C1313.74 310.794 1305.05 330.512 1299.83 342.735C1299.16 344.299 1298.53 345.79 1297.93 347.211C1335.6 346.282 1374.67 335.692 1417.4 317.261C1472.61 293.449 1530.42 258.188 1596.58 217.808C1727.14 138.118 1884.3 42.0903 2088.07 6.96484L2128.47 0L2142.4 80.8086ZM233.087 116.511C240.188 95.0095 263.376 83.3362 284.877 90.4375C306.378 97.5389 318.052 120.726 310.95 142.228L310.671 143.073C303.57 164.575 280.382 176.248 258.881 169.146C237.38 162.045 225.707 138.859 232.808 117.357L233.087 116.511Z" fill="white"/>
</svg>
